<?xml version="1.0" encoding="UTF-8" standalone="no"?><!DOCTYPE svg PUBLIC "-//W3C//DTD SVG 1.1//EN" "http://www.w3.org/Graphics/SVG/1.1/DTD/svg11.dtd"><svg width="100%" height="100%" viewBox="0 0 3508 2481" version="1.1" xmlns="http://www.w3.org/2000/svg" xmlns:xlink="http://www.w3.org/1999/xlink" xml:space="preserve" xmlns:serif="http://www.serif.com/" style="fill-rule:evenodd;clip-rule:evenodd;stroke-miterlimit:1.5;"><path d="M96.2,1862.51l-0,-1092.2l440.661,-440.661l-0,1532.86l-440.661,-0Z" style="fill:none;stroke:#007bff;stroke-width:75px;"/><path d="M228.298,817.338l0,897.745" style="fill:none;stroke:#007bff;stroke-width:75px;"/><path d="M399.675,1759.94l-0,-1136.95" style="fill:none;stroke:#007bff;stroke-width:75px;"/><path d="M786.22,1017.07l219.599,548.075l219.599,-548.075l114.875,-0l-0,671.715l-88.578,-0l-0,-261.581l8.304,-282.342l-220.522,543.923l-67.817,-0l-220.061,-542.539l8.766,280.958l-0,261.581l-88.578,-0l0,-671.715l114.413,-0Z" style="fill:#007bff;fill-rule:nonzero;stroke:#007bff;stroke-width:1px;stroke-linejoin:round;stroke-miterlimit:2;"/><path d="M2013.39,1374.61c-0,65.818 -11.073,123.255 -33.217,172.311c-22.144,49.056 -53.516,86.502 -94.114,112.337c-40.598,25.835 -87.963,38.753 -142.093,38.753c-52.901,-0 -99.804,-12.995 -140.71,-38.984c-40.906,-25.989 -72.661,-63.05 -95.267,-111.183c-22.606,-48.134 -34.216,-103.879 -34.832,-167.237l0,-48.441c0,-64.588 11.226,-121.641 33.678,-171.158c22.452,-49.518 54.208,-87.425 95.268,-113.721c41.059,-26.297 88.039,-39.445 140.94,-39.445c53.823,0 101.265,12.995 142.324,38.984c41.06,25.988 72.662,63.665 94.806,113.028c22.144,49.364 33.217,106.801 33.217,172.312l-0,42.444Zm-88.117,-43.367c0,-79.658 -15.993,-140.786 -47.979,-183.383c-31.987,-42.598 -76.737,-63.896 -134.251,-63.896c-55.976,-0 -100.035,21.298 -132.175,63.896c-32.14,42.597 -48.671,101.726 -49.594,177.386l-0,49.364c-0,77.198 16.224,137.864 48.672,181.999c32.447,44.135 77.121,66.203 134.02,66.203c57.206,-0 101.495,-20.837 132.866,-62.512c31.372,-41.675 47.519,-101.419 48.441,-179.232l0,-49.825Z" style="fill:#007bff;fill-rule:nonzero;stroke:#007bff;stroke-width:1px;stroke-linejoin:round;stroke-miterlimit:2;"/><path d="M2358.48,1571.14l191.919,-554.073l96.882,-0l-249.125,671.715l-78.429,-0l-248.663,-671.715l96.42,-0l190.996,554.073Z" style="fill:#007bff;fill-rule:nonzero;stroke:#007bff;stroke-width:1px;stroke-linejoin:round;stroke-miterlimit:2;"/><rect x="2743.7" y="1017.07" width="88.578" height="671.715" style="fill:#007bff;fill-rule:nonzero;stroke:#007bff;stroke-width:1px;stroke-linejoin:round;stroke-miterlimit:2;"/><path d="M3221.19,1274.5l161.009,-257.429l104.263,-0l-212.218,333.089l217.293,338.626l-105.186,-0l-165.161,-262.043l-166.083,262.043l-104.725,-0l217.754,-338.626l-212.679,-333.089l103.802,-0l161.931,257.429Z" style="fill:#007bff;fill-rule:nonzero;stroke:#007bff;stroke-width:1px;stroke-linejoin:round;stroke-miterlimit:2;"/></svg>